
<svg id="Layer_1" data-name="Layer 1" xmlns="http://www.w3.org/2000/svg" xmlns:xlink="http://www.w3.org/1999/xlink" viewBox="0 0 720.53 720.18"><defs><style>.cls-1,.cls-4{fill:none;}.cls-2{clip-path:url(#clip-path);}.cls-3{fill:#fff;}.cls-4{stroke:#fff;stroke-width:0.25px;}</style><clipPath id="clip-path"><rect class="cls-1" width="720.53" height="720.18"/></clipPath></defs><title>Artboard 1</title><g class="cls-2"><path class="cls-3" d="M36.14,37h0a.9.9,0,1,1,.9-.9.9.9,0,0,1-.9.9"/><path class="cls-3" d="M72.14,37h0a.9.9,0,1,1,.9-.9.9.9,0,0,1-.9.9"/><path class="cls-3" d="M108.14,37h0a.9.9,0,1,1,.9-.9.9.9,0,0,1-.9.9"/><path class="cls-3" d="M144.14,37h0a.9.9,0,1,1,.9-.9.9.9,0,0,1-.9.9"/><path class="cls-3" d="M180.14,37h0a.9.9,0,1,1,.9-.9.9.9,0,0,1-.9.9"/><path class="cls-3" d="M216.14,37h0a.9.9,0,1,1,.9-.9.9.9,0,0,1-.9.9"/><path class="cls-3" d="M252.14,37h0a.9.9,0,1,1,.9-.9.9.9,0,0,1-.9.9"/><path class="cls-3" d="M288.14,37h0a.9.9,0,1,1,.9-.9.9.9,0,0,1-.9.9"/><path class="cls-3" d="M324.14,37h0a.9.9,0,1,1,.9-.9.9.9,0,0,1-.9.9"/><path class="cls-3" d="M360.14,37h0a.9.9,0,1,1,.9-.9.9.9,0,0,1-.9.9"/><path class="cls-3" d="M396.14,37h0a.9.9,0,1,1,.9-.9.9.9,0,0,1-.9.9"/><path class="cls-3" d="M432.14,37h0a.9.9,0,1,1,.9-.9.9.9,0,0,1-.9.9"/><path class="cls-3" d="M468.14,37h0a.9.9,0,1,1,.9-.9.9.9,0,0,1-.9.9"/><path class="cls-3" d="M504.14,37h0a.9.9,0,1,1,.9-.9.9.9,0,0,1-.9.9"/><path class="cls-3" d="M540.14,37h0a.9.9,0,1,1,.9-.9.9.9,0,0,1-.9.9"/><path class="cls-3" d="M576.14,37h0a.9.9,0,1,1,.9-.9.9.9,0,0,1-.9.9"/><path class="cls-3" d="M612.14,37h0a.9.9,0,1,1,.9-.9.9.9,0,0,1-.9.9"/><path class="cls-3" d="M648.14,37h0a.9.9,0,1,1,.9-.9.9.9,0,0,1-.9.9"/><path class="cls-3" d="M684.14,37h0a.9.9,0,1,1,.9-.9.9.9,0,0,1-.9.9"/><path class="cls-3" d="M36.14,73h0a.9.9,0,1,1,.9-.9.9.9,0,0,1-.9.9"/><path class="cls-3" d="M72.14,73h0a.9.9,0,1,1,.9-.9.9.9,0,0,1-.9.9"/><path class="cls-3" d="M108.14,73h0a.9.9,0,1,1,.9-.9.9.9,0,0,1-.9.9"/><path class="cls-3" d="M144.14,73h0a.9.9,0,1,1,.9-.9.9.9,0,0,1-.9.9"/><path class="cls-3" d="M180.14,73h0a.9.9,0,1,1,.9-.9.9.9,0,0,1-.9.9"/><path class="cls-3" d="M216.14,73h0a.9.9,0,1,1,.9-.9.9.9,0,0,1-.9.9"/><path class="cls-3" d="M252.14,73h0a.9.9,0,1,1,.9-.9.9.9,0,0,1-.9.9"/><path class="cls-3" d="M288.14,73h0a.9.9,0,1,1,.9-.9.9.9,0,0,1-.9.9"/><path class="cls-3" d="M324.14,73h0a.9.9,0,1,1,.9-.9.9.9,0,0,1-.9.9"/><path class="cls-3" d="M360.14,73h0a.9.9,0,1,1,.9-.9.9.9,0,0,1-.9.9"/><path class="cls-3" d="M396.14,73h0a.9.9,0,1,1,.9-.9.9.9,0,0,1-.9.9"/><path class="cls-3" d="M432.14,73h0a.9.9,0,1,1,.9-.9.9.9,0,0,1-.9.9"/><path class="cls-3" d="M468.14,73h0a.9.9,0,1,1,.9-.9.9.9,0,0,1-.9.9"/><path class="cls-3" d="M504.14,73h0a.9.9,0,1,1,.9-.9.9.9,0,0,1-.9.9"/><path class="cls-3" d="M540.14,73h0a.9.9,0,1,1,.9-.9.9.9,0,0,1-.9.9"/><path class="cls-3" d="M576.14,73h0a.9.9,0,1,1,.9-.9.9.9,0,0,1-.9.9"/><path class="cls-3" d="M612.14,73h0a.9.9,0,1,1,.9-.9.9.9,0,0,1-.9.9"/><path class="cls-3" d="M648.14,73h0a.9.9,0,1,1,.9-.9.9.9,0,0,1-.9.9"/><path class="cls-3" d="M684.14,73h0a.9.9,0,1,1,.9-.9.9.9,0,0,1-.9.9"/><path class="cls-3" d="M36.14,109.09h0a.9.9,0,1,1,.9-.9.9.9,0,0,1-.9.9"/><path class="cls-3" d="M72.14,109.09h0a.9.9,0,1,1,.9-.9.9.9,0,0,1-.9.9"/><path class="cls-3" d="M108.14,109.09h0a.9.9,0,1,1,.9-.9.9.9,0,0,1-.9.9"/><path class="cls-3" d="M144.14,109.09h0a.9.9,0,1,1,.9-.9.9.9,0,0,1-.9.9"/><path class="cls-3" d="M180.14,109.09h0a.9.9,0,1,1,.9-.9.9.9,0,0,1-.9.9"/><path class="cls-3" d="M216.14,109.09h0a.9.9,0,1,1,.9-.9.9.9,0,0,1-.9.9"/><path class="cls-3" d="M252.14,109.09h0a.9.9,0,1,1,.9-.9.9.9,0,0,1-.9.9"/><path class="cls-3" d="M288.14,109.09h0a.9.9,0,1,1,.9-.9.9.9,0,0,1-.9.9"/><path class="cls-3" d="M324.14,109.09h0a.9.9,0,1,1,.9-.9.9.9,0,0,1-.9.9"/><path class="cls-3" d="M360.14,109.09h0a.9.9,0,1,1,.9-.9.9.9,0,0,1-.9.9"/><path class="cls-3" d="M396.14,109.09h0a.9.9,0,1,1,.9-.9.9.9,0,0,1-.9.9"/><path class="cls-3" d="M432.14,109.09h0a.9.9,0,1,1,.9-.9.9.9,0,0,1-.9.9"/><path class="cls-3" d="M468.14,109.09h0a.9.9,0,1,1,.9-.9.9.9,0,0,1-.9.9"/><path class="cls-3" d="M504.14,109.09h0a.9.9,0,1,1,.9-.9.9.9,0,0,1-.9.9"/><path class="cls-3" d="M540.14,109.09h0a.9.9,0,1,1,.9-.9.9.9,0,0,1-.9.9"/><path class="cls-3" d="M576.14,109.09h0a.9.9,0,1,1,.9-.9.9.9,0,0,1-.9.9"/><path class="cls-3" d="M612.14,109.09h0a.9.9,0,1,1,.9-.9.9.9,0,0,1-.9.9"/><path class="cls-3" d="M648.14,109.09h0a.9.9,0,1,1,.9-.9.9.9,0,0,1-.9.9"/><path class="cls-3" d="M684.14,109.09h0a.9.9,0,1,1,.9-.9.9.9,0,0,1-.9.9"/><path class="cls-3" d="M36.14,145h0a.9.9,0,1,1,.9-.9.9.9,0,0,1-.9.9"/><path class="cls-3" d="M72.14,145h0a.9.9,0,1,1,.9-.9.9.9,0,0,1-.9.9"/><path class="cls-3" d="M108.14,145h0a.9.9,0,1,1,.9-.9.9.9,0,0,1-.9.9"/><path class="cls-3" d="M144.14,145h0a.9.9,0,1,1,.9-.9.9.9,0,0,1-.9.9"/><path class="cls-3" d="M180.14,145h0a.9.9,0,1,1,.9-.9.9.9,0,0,1-.9.9"/><path class="cls-3" d="M216.14,145h0a.9.9,0,1,1,.9-.9.9.9,0,0,1-.9.9"/><path class="cls-3" d="M252.14,145h0a.9.9,0,1,1,.9-.9.9.9,0,0,1-.9.9"/><path class="cls-3" d="M288.14,145h0a.9.9,0,1,1,.9-.9.9.9,0,0,1-.9.9"/><path class="cls-3" d="M324.14,145h0a.9.9,0,1,1,.9-.9.9.9,0,0,1-.9.9"/><path class="cls-3" d="M360.14,145h0a.9.9,0,1,1,.9-.9.9.9,0,0,1-.9.9"/><path class="cls-3" d="M396.14,145h0a.9.9,0,1,1,.9-.9.9.9,0,0,1-.9.9"/><path class="cls-3" d="M432.14,145h0a.9.9,0,1,1,.9-.9.9.9,0,0,1-.9.9"/><path class="cls-3" d="M468.14,145h0a.9.9,0,1,1,.9-.9.9.9,0,0,1-.9.9"/><path class="cls-3" d="M504.14,145h0a.9.9,0,1,1,.9-.9.9.9,0,0,1-.9.9"/><path class="cls-3" d="M540.14,145h0a.9.9,0,1,1,.9-.9.9.9,0,0,1-.9.9"/><path class="cls-3" d="M576.14,145h0a.9.9,0,1,1,.9-.9.9.9,0,0,1-.9.9"/><path class="cls-3" d="M612.14,145h0a.9.9,0,1,1,.9-.9.9.9,0,0,1-.9.9"/><path class="cls-3" d="M648.14,145h0a.9.9,0,1,1,.9-.9.9.9,0,0,1-.9.9"/><path class="cls-3" d="M684.14,145h0a.9.9,0,1,1,.9-.9.9.9,0,0,1-.9.9"/><path class="cls-3" d="M36.14,181h0a.9.9,0,1,1,.9-.9.9.9,0,0,1-.9.9"/><path class="cls-3" d="M72.14,181h0a.9.9,0,1,1,.9-.9.9.9,0,0,1-.9.9"/><path class="cls-3" d="M108.14,181h0a.9.9,0,1,1,.9-.9.9.9,0,0,1-.9.9"/><path class="cls-3" d="M144.14,181h0a.9.9,0,1,1,.9-.9.9.9,0,0,1-.9.9"/><path class="cls-3" d="M180.14,181h0a.9.9,0,1,1,.9-.9.9.9,0,0,1-.9.9"/><path class="cls-3" d="M216.14,181h0a.9.9,0,1,1,.9-.9.9.9,0,0,1-.9.9"/><path class="cls-3" d="M252.14,181h0a.9.9,0,1,1,.9-.9.9.9,0,0,1-.9.9"/><path class="cls-3" d="M288.14,181h0a.9.9,0,1,1,.9-.9.9.9,0,0,1-.9.9"/><path class="cls-3" d="M324.14,181h0a.9.9,0,1,1,.9-.9.9.9,0,0,1-.9.9"/><path class="cls-3" d="M360.14,181h0a.9.9,0,1,1,.9-.9.9.9,0,0,1-.9.9"/><path class="cls-3" d="M396.14,181h0a.9.9,0,1,1,.9-.9.9.9,0,0,1-.9.9"/><path class="cls-3" d="M432.14,181h0a.9.9,0,1,1,.9-.9.9.9,0,0,1-.9.9"/><path class="cls-3" d="M468.14,181h0a.9.9,0,1,1,.9-.9.9.9,0,0,1-.9.9"/><path class="cls-3" d="M504.14,181h0a.9.9,0,1,1,.9-.9.9.9,0,0,1-.9.9"/><path class="cls-3" d="M540.14,181h0a.9.9,0,1,1,.9-.9.9.9,0,0,1-.9.9"/><path class="cls-3" d="M576.14,181h0a.9.9,0,1,1,.9-.9.9.9,0,0,1-.9.9"/><path class="cls-3" d="M612.14,181h0a.9.9,0,1,1,.9-.9.9.9,0,0,1-.9.9"/><path class="cls-3" d="M648.14,181h0a.9.9,0,1,1,.9-.9.9.9,0,0,1-.9.9"/><path class="cls-3" d="M684.14,181h0a.9.9,0,1,1,.9-.9.9.9,0,0,1-.9.9"/><path class="cls-3" d="M36.14,217.14h0a.9.9,0,1,1,.9-.9.9.9,0,0,1-.9.9"/><path class="cls-3" d="M72.14,217.14h0a.9.9,0,1,1,.9-.9.9.9,0,0,1-.9.9"/><path class="cls-3" d="M108.14,217.14h0a.9.9,0,1,1,.9-.9.9.9,0,0,1-.9.9"/><path class="cls-3" d="M144.14,217.14h0a.9.9,0,1,1,.9-.9.9.9,0,0,1-.9.9"/><path class="cls-3" d="M180.14,217.14h0a.9.9,0,1,1,.9-.9.9.9,0,0,1-.9.9"/><path class="cls-3" d="M216.14,217.14h0a.9.9,0,1,1,.9-.9.9.9,0,0,1-.9.9"/><path class="cls-3" d="M252.14,217.14h0a.9.9,0,1,1,.9-.9.9.9,0,0,1-.9.9"/><path class="cls-3" d="M288.14,217.14h0a.9.9,0,1,1,.9-.9.9.9,0,0,1-.9.9"/><path class="cls-3" d="M324.14,217.14h0a.9.9,0,1,1,.9-.9.9.9,0,0,1-.9.9"/><path class="cls-3" d="M360.14,217.14h0a.9.9,0,1,1,.9-.9.9.9,0,0,1-.9.9"/><path class="cls-3" d="M396.14,217.14h0a.9.9,0,1,1,.9-.9.9.9,0,0,1-.9.9"/><path class="cls-3" d="M432.14,217.14h0a.9.9,0,1,1,.9-.9.9.9,0,0,1-.9.9"/><path class="cls-3" d="M468.14,217.14h0a.9.9,0,1,1,.9-.9.9.9,0,0,1-.9.9"/><path class="cls-3" d="M504.14,217.14h0a.9.9,0,1,1,.9-.9.9.9,0,0,1-.9.9"/><path class="cls-3" d="M540.14,217.14h0a.9.9,0,1,1,.9-.9.9.9,0,0,1-.9.9"/><path class="cls-3" d="M576.14,217.14h0a.9.9,0,1,1,.9-.9.9.9,0,0,1-.9.9"/><path class="cls-3" d="M612.14,217.14h0a.9.9,0,1,1,.9-.9.9.9,0,0,1-.9.9"/><path class="cls-3" d="M648.14,217.14h0a.9.9,0,1,1,.9-.9.9.9,0,0,1-.9.9"/><path class="cls-3" d="M684.14,217.14h0a.9.9,0,1,1,.9-.9.9.9,0,0,1-.9.9"/><path class="cls-3" d="M36.14,253.14h0a.9.9,0,1,1,.9-.9.9.9,0,0,1-.9.9"/><path class="cls-3" d="M72.14,253.14h0a.9.9,0,1,1,.9-.9.9.9,0,0,1-.9.9"/><path class="cls-3" d="M108.14,253.14h0a.9.9,0,1,1,.9-.9.9.9,0,0,1-.9.9"/><path class="cls-3" d="M144.14,253.14h0a.9.9,0,1,1,.9-.9.9.9,0,0,1-.9.9"/><path class="cls-3" d="M180.14,253.14h0a.9.9,0,1,1,.9-.9.9.9,0,0,1-.9.9"/><path class="cls-3" d="M216.14,253.14h0a.9.9,0,1,1,.9-.9.9.9,0,0,1-.9.9"/><path class="cls-3" d="M252.14,253.14h0a.9.9,0,1,1,.9-.9.9.9,0,0,1-.9.9"/><path class="cls-3" d="M288.14,253.14h0a.9.9,0,1,1,.9-.9.9.9,0,0,1-.9.9"/><path class="cls-3" d="M324.14,253.14h0a.9.9,0,1,1,.9-.9.9.9,0,0,1-.9.9"/><path class="cls-3" d="M360.14,253.14h0a.9.9,0,1,1,.9-.9.9.9,0,0,1-.9.9"/><path class="cls-3" d="M396.14,253.14h0a.9.9,0,1,1,.9-.9.9.9,0,0,1-.9.9"/><path class="cls-3" d="M432.14,253.14h0a.9.9,0,1,1,.9-.9.9.9,0,0,1-.9.9"/><path class="cls-3" d="M468.14,253.14h0a.9.9,0,1,1,.9-.9.9.9,0,0,1-.9.9"/><path class="cls-3" d="M504.14,253.14h0a.9.9,0,1,1,.9-.9.9.9,0,0,1-.9.9"/><path class="cls-3" d="M540.14,253.14h0a.9.9,0,1,1,.9-.9.9.9,0,0,1-.9.9"/><path class="cls-3" d="M576.14,253.14h0a.9.9,0,1,1,.9-.9.9.9,0,0,1-.9.9"/><path class="cls-3" d="M612.14,253.14h0a.9.9,0,1,1,.9-.9.9.9,0,0,1-.9.9"/><path class="cls-3" d="M648.14,253.14h0a.9.9,0,1,1,.9-.9.9.9,0,0,1-.9.9"/><path class="cls-3" d="M684.14,253.14h0a.9.9,0,1,1,.9-.9.9.9,0,0,1-.9.9"/><path class="cls-3" d="M36.14,289.14h0a.9.9,0,1,1,.9-.9.9.9,0,0,1-.9.9"/><path class="cls-3" d="M72.14,289.14h0a.9.9,0,1,1,.9-.9.9.9,0,0,1-.9.9"/><path class="cls-3" d="M108.14,289.14h0a.9.9,0,1,1,.9-.9.9.9,0,0,1-.9.9"/><path class="cls-3" d="M144.14,289.14h0a.9.9,0,1,1,.9-.9.9.9,0,0,1-.9.9"/><path class="cls-3" d="M180.14,289.14h0a.9.9,0,1,1,.9-.9.9.9,0,0,1-.9.9"/><path class="cls-3" d="M216.14,289.14h0a.9.9,0,1,1,.9-.9.9.9,0,0,1-.9.9"/><path class="cls-3" d="M252.14,289.14h0a.9.9,0,1,1,.9-.9.9.9,0,0,1-.9.9"/><path class="cls-3" d="M288.14,289.14h0a.9.9,0,1,1,.9-.9.9.9,0,0,1-.9.9"/><path class="cls-3" d="M324.14,289.14h0a.9.9,0,1,1,.9-.9.9.9,0,0,1-.9.9"/><path class="cls-3" d="M360.14,289.14h0a.9.9,0,1,1,.9-.9.9.9,0,0,1-.9.9"/><path class="cls-3" d="M396.14,289.14h0a.9.9,0,1,1,.9-.9.9.9,0,0,1-.9.9"/><path class="cls-3" d="M432.14,289.14h0a.9.9,0,1,1,.9-.9.9.9,0,0,1-.9.9"/><path class="cls-3" d="M468.14,289.14h0a.9.9,0,1,1,.9-.9.9.9,0,0,1-.9.9"/><path class="cls-3" d="M504.14,289.14h0a.9.9,0,1,1,.9-.9.9.9,0,0,1-.9.9"/><path class="cls-3" d="M540.14,289.14h0a.9.9,0,1,1,.9-.9.9.9,0,0,1-.9.9"/><path class="cls-3" d="M576.14,289.14h0a.9.9,0,1,1,.9-.9.9.9,0,0,1-.9.9"/><path class="cls-3" d="M612.14,289.14h0a.9.9,0,1,1,.9-.9.9.9,0,0,1-.9.9"/><path class="cls-3" d="M648.14,289.14h0a.9.9,0,1,1,.9-.9.9.9,0,0,1-.9.9"/><path class="cls-3" d="M684.14,289.14h0a.9.9,0,1,1,.9-.9.9.9,0,0,1-.9.9"/><path class="cls-3" d="M36.14,325.25h0a.9.9,0,1,1,.9-.9.9.9,0,0,1-.9.9"/><path class="cls-3" d="M72.14,325.25h0a.9.9,0,1,1,.9-.9.9.9,0,0,1-.9.9"/><path class="cls-3" d="M108.14,325.25h0a.9.9,0,1,1,.9-.9.9.9,0,0,1-.9.9"/><path class="cls-3" d="M144.14,325.25h0a.9.9,0,1,1,.9-.9.9.9,0,0,1-.9.9"/><path class="cls-3" d="M180.14,325.25h0a.9.9,0,1,1,.9-.9.9.9,0,0,1-.9.9"/><path class="cls-3" d="M216.14,325.25h0a.9.9,0,1,1,.9-.9.9.9,0,0,1-.9.9"/><path class="cls-3" d="M252.14,325.25h0a.9.9,0,1,1,.9-.9.9.9,0,0,1-.9.9"/><path class="cls-3" d="M288.14,325.25h0a.9.9,0,1,1,.9-.9.9.9,0,0,1-.9.9"/><path class="cls-3" d="M324.14,325.25h0a.9.9,0,1,1,.9-.9.9.9,0,0,1-.9.9"/><path class="cls-3" d="M360.14,325.25h0a.9.9,0,1,1,.9-.9.9.9,0,0,1-.9.9"/><path class="cls-3" d="M396.14,325.25h0a.9.9,0,1,1,.9-.9.9.9,0,0,1-.9.9"/><path class="cls-3" d="M432.14,325.25h0a.9.9,0,1,1,.9-.9.9.9,0,0,1-.9.9"/><path class="cls-3" d="M468.14,325.25h0a.9.9,0,1,1,.9-.9.9.9,0,0,1-.9.9"/><path class="cls-3" d="M504.14,325.25h0a.9.9,0,1,1,.9-.9.9.9,0,0,1-.9.9"/><path class="cls-3" d="M540.14,325.25h0a.9.9,0,1,1,.9-.9.9.9,0,0,1-.9.9"/><path class="cls-3" d="M576.14,325.25h0a.9.9,0,1,1,.9-.9.9.9,0,0,1-.9.9"/><path class="cls-3" d="M612.14,325.25h0a.9.9,0,1,1,.9-.9.9.9,0,0,1-.9.9"/><path class="cls-3" d="M648.14,325.25h0a.9.9,0,1,1,.9-.9.9.9,0,0,1-.9.9"/><path class="cls-3" d="M684.14,325.25h0a.9.9,0,1,1,.9-.9.9.9,0,0,1-.9.9"/><path class="cls-3" d="M36.14,361.19h0a.9.9,0,1,1,.9-.9.9.9,0,0,1-.9.9"/><path class="cls-3" d="M72.14,361.19h0a.9.9,0,1,1,.9-.9.9.9,0,0,1-.9.9"/><path class="cls-3" d="M108.14,361.19h0a.9.9,0,1,1,.9-.9.9.9,0,0,1-.9.9"/><path class="cls-3" d="M144.14,361.19h0a.9.9,0,1,1,.9-.9.9.9,0,0,1-.9.9"/><path class="cls-3" d="M180.14,361.19h0a.9.9,0,1,1,.9-.9.9.9,0,0,1-.9.9"/><path class="cls-3" d="M216.14,361.19h0a.9.9,0,1,1,.9-.9.9.9,0,0,1-.9.9"/><path class="cls-3" d="M252.14,361.19h0a.9.9,0,1,1,.9-.9.9.9,0,0,1-.9.9"/><path class="cls-3" d="M288.14,361.19h0a.9.9,0,1,1,.9-.9.9.9,0,0,1-.9.9"/><path class="cls-3" d="M324.14,361.19h0a.9.9,0,1,1,.9-.9.9.9,0,0,1-.9.9"/><path class="cls-3" d="M360.14,361.19h0a.9.9,0,1,1,.9-.9.9.9,0,0,1-.9.9"/><path class="cls-3" d="M396.14,361.19h0a.9.9,0,1,1,.9-.9.9.9,0,0,1-.9.9"/><path class="cls-3" d="M432.14,361.19h0a.9.9,0,1,1,.9-.9.9.9,0,0,1-.9.9"/><path class="cls-3" d="M468.14,361.19h0a.9.9,0,1,1,.9-.9.9.9,0,0,1-.9.9"/><path class="cls-3" d="M504.14,361.19h0a.9.9,0,1,1,.9-.9.9.9,0,0,1-.9.9"/><path class="cls-3" d="M540.14,361.19h0a.9.9,0,1,1,.9-.9.9.9,0,0,1-.9.9"/><path class="cls-3" d="M576.14,361.19h0a.9.9,0,1,1,.9-.9.9.9,0,0,1-.9.9"/><path class="cls-3" d="M612.14,361.19h0a.9.9,0,1,1,.9-.9.9.9,0,0,1-.9.9"/><path class="cls-3" d="M648.14,361.19h0a.9.9,0,1,1,.9-.9.9.9,0,0,1-.9.9"/><path class="cls-3" d="M684.14,361.19h0a.9.9,0,1,1,.9-.9.9.9,0,0,1-.9.9"/><path class="cls-3" d="M36.14,397.19h0a.9.9,0,1,1,.9-.9.9.9,0,0,1-.9.9"/><path class="cls-3" d="M72.14,397.19h0a.9.9,0,1,1,.9-.9.9.9,0,0,1-.9.9"/><path class="cls-3" d="M108.14,397.19h0a.9.9,0,1,1,.9-.9.9.9,0,0,1-.9.9"/><path class="cls-3" d="M144.14,397.19h0a.9.9,0,1,1,.9-.9.9.9,0,0,1-.9.9"/><path class="cls-3" d="M180.14,397.19h0a.9.9,0,1,1,.9-.9.9.9,0,0,1-.9.9"/><path class="cls-3" d="M216.14,397.19h0a.9.9,0,1,1,.9-.9.9.9,0,0,1-.9.9"/><path class="cls-3" d="M252.14,397.19h0a.9.9,0,1,1,.9-.9.9.9,0,0,1-.9.9"/><path class="cls-3" d="M288.14,397.19h0a.9.9,0,1,1,.9-.9.9.9,0,0,1-.9.9"/><path class="cls-3" d="M324.14,397.19h0a.9.9,0,1,1,.9-.9.9.9,0,0,1-.9.9"/><path class="cls-3" d="M360.14,397.19h0a.9.9,0,1,1,.9-.9.9.9,0,0,1-.9.9"/><path class="cls-3" d="M396.14,397.19h0a.9.9,0,1,1,.9-.9.9.9,0,0,1-.9.9"/><path class="cls-3" d="M432.14,397.19h0a.9.9,0,1,1,.9-.9.9.9,0,0,1-.9.9"/><path class="cls-3" d="M468.14,397.19h0a.9.9,0,1,1,.9-.9.9.9,0,0,1-.9.9"/><path class="cls-3" d="M504.14,397.19h0a.9.9,0,1,1,.9-.9.9.9,0,0,1-.9.9"/><path class="cls-3" d="M540.14,397.19h0a.9.9,0,1,1,.9-.9.9.9,0,0,1-.9.9"/><path class="cls-3" d="M576.14,397.19h0a.9.9,0,1,1,.9-.9.9.9,0,0,1-.9.9"/><path class="cls-3" d="M612.14,397.19h0a.9.9,0,1,1,.9-.9.9.9,0,0,1-.9.9"/><path class="cls-3" d="M648.14,397.19h0a.9.9,0,1,1,.9-.9.9.9,0,0,1-.9.9"/><path class="cls-3" d="M684.14,397.19h0a.9.9,0,1,1,.9-.9.9.9,0,0,1-.9.9"/><path class="cls-3" d="M36.14,433.3h0a.9.9,0,1,1,.9-.9.9.9,0,0,1-.9.9"/><path class="cls-3" d="M72.14,433.3h0a.9.9,0,1,1,.9-.9.9.9,0,0,1-.9.9"/><path class="cls-3" d="M108.14,433.3h0a.9.9,0,1,1,.9-.9.9.9,0,0,1-.9.9"/><path class="cls-3" d="M144.14,433.3h0a.9.9,0,1,1,.9-.9.9.9,0,0,1-.9.9"/><path class="cls-3" d="M180.14,433.3h0a.9.9,0,1,1,.9-.9.9.9,0,0,1-.9.9"/><path class="cls-3" d="M216.14,433.3h0a.9.9,0,1,1,.9-.9.9.9,0,0,1-.9.9"/><path class="cls-3" d="M252.14,433.3h0a.9.9,0,1,1,.9-.9.9.9,0,0,1-.9.9"/><path class="cls-3" d="M288.14,433.3h0a.9.9,0,1,1,.9-.9.9.9,0,0,1-.9.9"/><path class="cls-3" d="M324.14,433.3h0a.9.9,0,1,1,.9-.9.9.9,0,0,1-.9.9"/><path class="cls-3" d="M360.14,433.3h0a.9.9,0,1,1,.9-.9.9.9,0,0,1-.9.9"/><path class="cls-3" d="M396.14,433.3h0a.9.9,0,1,1,.9-.9.9.9,0,0,1-.9.9"/><path class="cls-3" d="M432.14,433.3h0a.9.9,0,1,1,.9-.9.9.9,0,0,1-.9.9"/><path class="cls-3" d="M468.14,433.3h0a.9.9,0,1,1,.9-.9.9.9,0,0,1-.9.9"/><path class="cls-3" d="M504.14,433.3h0a.9.9,0,1,1,.9-.9.9.9,0,0,1-.9.9"/><path class="cls-3" d="M540.14,433.3h0a.9.9,0,1,1,.9-.9.9.9,0,0,1-.9.9"/><path class="cls-3" d="M576.14,433.3h0a.9.9,0,1,1,.9-.9.9.9,0,0,1-.9.9"/><path class="cls-3" d="M612.14,433.3h0a.9.9,0,1,1,.9-.9.9.9,0,0,1-.9.9"/><path class="cls-3" d="M648.14,433.3h0a.9.9,0,1,1,.9-.9.9.9,0,0,1-.9.9"/><path class="cls-3" d="M684.14,433.3h0a.9.9,0,1,1,.9-.9.9.9,0,0,1-.9.9"/><path class="cls-3" d="M36.14,469.3h0a.9.9,0,1,1,.9-.9.9.9,0,0,1-.9.9"/><path class="cls-3" d="M72.14,469.3h0a.9.9,0,1,1,.9-.9.9.9,0,0,1-.9.9"/><path class="cls-3" d="M108.14,469.3h0a.9.9,0,1,1,.9-.9.9.9,0,0,1-.9.9"/><path class="cls-3" d="M144.14,469.3h0a.9.9,0,1,1,.9-.9.9.9,0,0,1-.9.9"/><path class="cls-3" d="M180.14,469.3h0a.9.9,0,1,1,.9-.9.9.9,0,0,1-.9.9"/><path class="cls-3" d="M216.14,469.3h0a.9.9,0,1,1,.9-.9.9.9,0,0,1-.9.9"/><path class="cls-3" d="M252.14,469.3h0a.9.9,0,1,1,.9-.9.9.9,0,0,1-.9.9"/><path class="cls-3" d="M288.14,469.3h0a.9.9,0,1,1,.9-.9.9.9,0,0,1-.9.9"/><path class="cls-3" d="M324.14,469.3h0a.9.9,0,1,1,.9-.9.9.9,0,0,1-.9.9"/><path class="cls-3" d="M360.14,469.3h0a.9.9,0,1,1,.9-.9.9.9,0,0,1-.9.9"/><path class="cls-3" d="M396.14,469.3h0a.9.9,0,1,1,.9-.9.9.9,0,0,1-.9.9"/><path class="cls-3" d="M432.14,469.3h0a.9.9,0,1,1,.9-.9.9.9,0,0,1-.9.9"/><path class="cls-3" d="M468.14,469.3h0a.9.9,0,1,1,.9-.9.9.9,0,0,1-.9.9"/><path class="cls-3" d="M504.14,469.3h0a.9.9,0,1,1,.9-.9.9.9,0,0,1-.9.9"/><path class="cls-3" d="M540.14,469.3h0a.9.9,0,1,1,.9-.9.9.9,0,0,1-.9.9"/><path class="cls-3" d="M576.14,469.3h0a.9.9,0,1,1,.9-.9.9.9,0,0,1-.9.9"/><path class="cls-3" d="M612.14,469.3h0a.9.9,0,1,1,.9-.9.9.9,0,0,1-.9.9"/><path class="cls-3" d="M648.14,469.3h0a.9.9,0,1,1,.9-.9.9.9,0,0,1-.9.9"/><path class="cls-3" d="M684.14,469.3h0a.9.9,0,1,1,.9-.9.9.9,0,0,1-.9.9"/><path class="cls-3" d="M36.14,505.3h0a.9.9,0,1,1,.9-.9.9.9,0,0,1-.9.9"/><path class="cls-3" d="M72.14,505.3h0a.9.9,0,1,1,.9-.9.9.9,0,0,1-.9.9"/><path class="cls-3" d="M108.14,505.3h0a.9.9,0,1,1,.9-.9.9.9,0,0,1-.9.9"/><path class="cls-3" d="M144.14,505.3h0a.9.9,0,1,1,.9-.9.9.9,0,0,1-.9.9"/><path class="cls-3" d="M180.14,505.3h0a.9.9,0,1,1,.9-.9.9.9,0,0,1-.9.9"/><path class="cls-3" d="M216.14,505.3h0a.9.9,0,1,1,.9-.9.9.9,0,0,1-.9.9"/><path class="cls-3" d="M252.14,505.3h0a.9.9,0,1,1,.9-.9.9.9,0,0,1-.9.9"/><path class="cls-3" d="M288.14,505.3h0a.9.9,0,1,1,.9-.9.9.9,0,0,1-.9.9"/><path class="cls-3" d="M324.14,505.3h0a.9.9,0,1,1,.9-.9.9.9,0,0,1-.9.9"/><path class="cls-3" d="M360.14,505.3h0a.9.9,0,1,1,.9-.9.9.9,0,0,1-.9.9"/><path class="cls-3" d="M396.14,505.3h0a.9.9,0,1,1,.9-.9.9.9,0,0,1-.9.9"/><path class="cls-3" d="M432.14,505.3h0a.9.9,0,1,1,.9-.9.9.9,0,0,1-.9.9"/><path class="cls-3" d="M468.14,505.3h0a.9.9,0,1,1,.9-.9.9.9,0,0,1-.9.9"/><path class="cls-3" d="M504.14,505.3h0a.9.9,0,1,1,.9-.9.9.9,0,0,1-.9.9"/><path class="cls-3" d="M540.14,505.3h0a.9.9,0,1,1,.9-.9.9.9,0,0,1-.9.9"/><path class="cls-3" d="M576.14,505.3h0a.9.9,0,1,1,.9-.9.9.9,0,0,1-.9.9"/><path class="cls-3" d="M612.14,505.3h0a.9.9,0,1,1,.9-.9.9.9,0,0,1-.9.9"/><path class="cls-3" d="M648.14,505.3h0a.9.9,0,1,1,.9-.9.9.9,0,0,1-.9.9"/><path class="cls-3" d="M684.14,505.3h0a.9.9,0,1,1,.9-.9.9.9,0,0,1-.9.9"/><path class="cls-3" d="M36.14,541.4h0a.9.9,0,1,1,.9-.9.9.9,0,0,1-.9.9"/><path class="cls-3" d="M72.14,541.4h0a.9.9,0,1,1,.9-.9.9.9,0,0,1-.9.9"/><path class="cls-3" d="M108.14,541.4h0a.9.9,0,1,1,.9-.9.9.9,0,0,1-.9.9"/><path class="cls-3" d="M144.14,541.4h0a.9.9,0,1,1,.9-.9.9.9,0,0,1-.9.9"/><path class="cls-3" d="M180.14,541.4h0a.9.9,0,1,1,.9-.9.9.9,0,0,1-.9.9"/><path class="cls-3" d="M216.14,541.4h0a.9.9,0,1,1,.9-.9.9.9,0,0,1-.9.9"/><path class="cls-3" d="M252.14,541.4h0a.9.9,0,1,1,.9-.9.9.9,0,0,1-.9.9"/><path class="cls-3" d="M288.14,541.4h0a.9.9,0,1,1,.9-.9.9.9,0,0,1-.9.9"/><path class="cls-3" d="M324.14,541.4h0a.9.9,0,1,1,.9-.9.9.9,0,0,1-.9.9"/><path class="cls-3" d="M360.14,541.4h0a.9.9,0,1,1,.9-.9.9.9,0,0,1-.9.9"/><path class="cls-3" d="M396.14,541.4h0a.9.9,0,1,1,.9-.9.9.9,0,0,1-.9.9"/><path class="cls-3" d="M432.14,541.4h0a.9.9,0,1,1,.9-.9.9.9,0,0,1-.9.9"/><path class="cls-3" d="M468.14,541.4h0a.9.9,0,1,1,.9-.9.9.9,0,0,1-.9.9"/><path class="cls-3" d="M504.14,541.4h0a.9.9,0,1,1,.9-.9.9.9,0,0,1-.9.9"/><path class="cls-3" d="M540.14,541.4h0a.9.9,0,1,1,.9-.9.9.9,0,0,1-.9.9"/><path class="cls-3" d="M576.14,541.4h0a.9.9,0,1,1,.9-.9.9.9,0,0,1-.9.9"/><path class="cls-3" d="M612.14,541.4h0a.9.9,0,1,1,.9-.9.9.9,0,0,1-.9.9"/><path class="cls-3" d="M648.14,541.4h0a.9.9,0,1,1,.9-.9.9.9,0,0,1-.9.9"/><path class="cls-3" d="M684.14,541.4h0a.9.9,0,1,1,.9-.9.9.9,0,0,1-.9.9"/><path class="cls-3" d="M36.14,577.35h0a.9.9,0,1,1,.9-.9.9.9,0,0,1-.9.9"/><path class="cls-3" d="M72.14,577.35h0a.9.9,0,1,1,.9-.9.9.9,0,0,1-.9.9"/><path class="cls-3" d="M108.14,577.35h0a.9.9,0,1,1,.9-.9.9.9,0,0,1-.9.9"/><path class="cls-3" d="M144.14,577.35h0a.9.9,0,1,1,.9-.9.9.9,0,0,1-.9.9"/><path class="cls-3" d="M180.14,577.35h0a.9.9,0,1,1,.9-.9.9.9,0,0,1-.9.9"/><path class="cls-3" d="M216.14,577.35h0a.9.9,0,1,1,.9-.9.9.9,0,0,1-.9.9"/><path class="cls-3" d="M252.14,577.35h0a.9.9,0,1,1,.9-.9.9.9,0,0,1-.9.9"/><path class="cls-3" d="M288.14,577.35h0a.9.9,0,1,1,.9-.9.9.9,0,0,1-.9.9"/><path class="cls-3" d="M324.14,577.35h0a.9.9,0,1,1,.9-.9.9.9,0,0,1-.9.9"/><path class="cls-3" d="M360.14,577.35h0a.9.9,0,1,1,.9-.9.9.9,0,0,1-.9.9"/><path class="cls-3" d="M396.14,577.35h0a.9.9,0,1,1,.9-.9.9.9,0,0,1-.9.9"/><path class="cls-3" d="M432.14,577.35h0a.9.9,0,1,1,.9-.9.9.9,0,0,1-.9.9"/><path class="cls-3" d="M468.14,577.35h0a.9.9,0,1,1,.9-.9.9.9,0,0,1-.9.9"/><path class="cls-3" d="M504.14,577.35h0a.9.9,0,1,1,.9-.9.9.9,0,0,1-.9.9"/><path class="cls-3" d="M540.14,577.35h0a.9.9,0,1,1,.9-.9.9.9,0,0,1-.9.9"/><path class="cls-3" d="M576.14,577.35h0a.9.9,0,1,1,.9-.9.9.9,0,0,1-.9.9"/><path class="cls-3" d="M612.14,577.35h0a.9.9,0,1,1,.9-.9.9.9,0,0,1-.9.9"/><path class="cls-3" d="M648.14,577.35h0a.9.9,0,1,1,.9-.9.9.9,0,0,1-.9.9"/><path class="cls-3" d="M684.14,577.35h0a.9.9,0,1,1,.9-.9.9.9,0,0,1-.9.9"/><path class="cls-3" d="M36.14,613.35h0a.9.9,0,1,1,.9-.9.9.9,0,0,1-.9.9"/><path class="cls-3" d="M72.14,613.35h0a.9.9,0,1,1,.9-.9.9.9,0,0,1-.9.9"/><path class="cls-3" d="M108.14,613.35h0a.9.9,0,1,1,.9-.9.9.9,0,0,1-.9.9"/><path class="cls-3" d="M144.14,613.35h0a.9.9,0,1,1,.9-.9.9.9,0,0,1-.9.9"/><path class="cls-3" d="M180.14,613.35h0a.9.9,0,1,1,.9-.9.9.9,0,0,1-.9.9"/><path class="cls-3" d="M216.14,613.35h0a.9.9,0,1,1,.9-.9.9.9,0,0,1-.9.9"/><path class="cls-3" d="M252.14,613.35h0a.9.9,0,1,1,.9-.9.9.9,0,0,1-.9.9"/><path class="cls-3" d="M288.14,613.35h0a.9.9,0,1,1,.9-.9.9.9,0,0,1-.9.9"/><path class="cls-3" d="M324.14,613.35h0a.9.9,0,1,1,.9-.9.9.9,0,0,1-.9.9"/><path class="cls-3" d="M360.14,613.35h0a.9.9,0,1,1,.9-.9.9.9,0,0,1-.9.9"/><path class="cls-3" d="M396.14,613.35h0a.9.9,0,1,1,.9-.9.9.9,0,0,1-.9.9"/><path class="cls-3" d="M432.14,613.35h0a.9.9,0,1,1,.9-.9.9.9,0,0,1-.9.9"/><path class="cls-3" d="M468.14,613.35h0a.9.9,0,1,1,.9-.9.9.9,0,0,1-.9.9"/><path class="cls-3" d="M504.14,613.35h0a.9.9,0,1,1,.9-.9.9.9,0,0,1-.9.9"/><path class="cls-3" d="M540.14,613.35h0a.9.9,0,1,1,.9-.9.9.9,0,0,1-.9.9"/><path class="cls-3" d="M576.14,613.35h0a.9.9,0,1,1,.9-.9.9.9,0,0,1-.9.9"/><path class="cls-3" d="M612.14,613.35h0a.9.9,0,1,1,.9-.9.9.9,0,0,1-.9.9"/><path class="cls-3" d="M648.14,613.35h0a.9.9,0,1,1,.9-.9.9.9,0,0,1-.9.9"/><path class="cls-3" d="M684.14,613.35h0a.9.9,0,1,1,.9-.9.9.9,0,0,1-.9.9"/><path class="cls-3" d="M36.14,649.45h0a.9.9,0,1,1,.9-.9.9.9,0,0,1-.9.9"/><path class="cls-3" d="M72.14,649.45h0a.9.9,0,1,1,.9-.9.9.9,0,0,1-.9.9"/><path class="cls-3" d="M108.14,649.45h0a.9.9,0,1,1,.9-.9.9.9,0,0,1-.9.9"/><path class="cls-3" d="M144.14,649.45h0a.9.9,0,1,1,.9-.9.9.9,0,0,1-.9.9"/><path class="cls-3" d="M180.14,649.45h0a.9.9,0,1,1,.9-.9.9.9,0,0,1-.9.9"/><path class="cls-3" d="M216.14,649.45h0a.9.9,0,1,1,.9-.9.9.9,0,0,1-.9.9"/><path class="cls-3" d="M252.14,649.45h0a.9.9,0,1,1,.9-.9.9.9,0,0,1-.9.9"/><path class="cls-3" d="M288.14,649.45h0a.9.9,0,1,1,.9-.9.9.9,0,0,1-.9.9"/><path class="cls-3" d="M324.14,649.45h0a.9.9,0,1,1,.9-.9.9.9,0,0,1-.9.9"/><path class="cls-3" d="M360.14,649.45h0a.9.9,0,1,1,.9-.9.9.9,0,0,1-.9.9"/><path class="cls-3" d="M396.14,649.45h0a.9.9,0,1,1,.9-.9.9.9,0,0,1-.9.9"/><path class="cls-3" d="M432.14,649.45h0a.9.9,0,1,1,.9-.9.9.9,0,0,1-.9.9"/><path class="cls-3" d="M468.14,649.45h0a.9.9,0,1,1,.9-.9.9.9,0,0,1-.9.9"/><path class="cls-3" d="M504.14,649.45h0a.9.9,0,1,1,.9-.9.9.9,0,0,1-.9.9"/><path class="cls-3" d="M540.14,649.45h0a.9.9,0,1,1,.9-.9.9.9,0,0,1-.9.9"/><path class="cls-3" d="M576.14,649.45h0a.9.9,0,1,1,.9-.9.9.9,0,0,1-.9.9"/><path class="cls-3" d="M612.14,649.45h0a.9.9,0,1,1,.9-.9.9.9,0,0,1-.9.9"/><path class="cls-3" d="M648.14,649.45h0a.9.9,0,1,1,.9-.9.9.9,0,0,1-.9.9"/><path class="cls-3" d="M684.14,649.45h0a.9.9,0,1,1,.9-.9.9.9,0,0,1-.9.9"/><path class="cls-3" d="M36.14,685.45h0a.9.9,0,1,1,.9-.9.9.9,0,0,1-.9.9"/><path class="cls-3" d="M72.14,685.45h0a.9.9,0,1,1,.9-.9.9.9,0,0,1-.9.9"/><path class="cls-3" d="M108.14,685.45h0a.9.9,0,1,1,.9-.9.9.9,0,0,1-.9.9"/><path class="cls-3" d="M144.14,685.45h0a.9.9,0,1,1,.9-.9.9.9,0,0,1-.9.9"/><path class="cls-3" d="M180.14,685.45h0a.9.9,0,1,1,.9-.9.9.9,0,0,1-.9.9"/><path class="cls-3" d="M216.14,685.45h0a.9.9,0,1,1,.9-.9.9.9,0,0,1-.9.9"/><path class="cls-3" d="M252.14,685.45h0a.9.9,0,1,1,.9-.9.9.9,0,0,1-.9.9"/><path class="cls-3" d="M288.14,685.45h0a.9.9,0,1,1,.9-.9.9.9,0,0,1-.9.9"/><path class="cls-3" d="M324.14,685.45h0a.9.9,0,1,1,.9-.9.9.9,0,0,1-.9.9"/><path class="cls-3" d="M360.14,685.45h0a.9.9,0,1,1,.9-.9.9.9,0,0,1-.9.9"/><path class="cls-3" d="M396.14,685.45h0a.9.9,0,1,1,.9-.9.9.9,0,0,1-.9.9"/><path class="cls-3" d="M432.14,685.45h0a.9.9,0,1,1,.9-.9.9.9,0,0,1-.9.9"/><path class="cls-3" d="M468.14,685.45h0a.9.9,0,1,1,.9-.9.9.9,0,0,1-.9.9"/><path class="cls-3" d="M504.14,685.45h0a.9.9,0,1,1,.9-.9.9.9,0,0,1-.9.9"/><path class="cls-3" d="M540.14,685.45h0a.9.9,0,1,1,.9-.9.9.9,0,0,1-.9.9"/><path class="cls-3" d="M576.14,685.45h0a.9.9,0,1,1,.9-.9.9.9,0,0,1-.9.9"/><path class="cls-3" d="M612.14,685.45h0a.9.9,0,1,1,.9-.9.9.9,0,0,1-.9.9"/><path class="cls-3" d="M648.14,685.45h0a.9.9,0,1,1,.9-.9.9.9,0,0,1-.9.9"/><path class="cls-3" d="M684.14,685.45h0a.9.9,0,1,1,.9-.9.9.9,0,0,1-.9.9"/><line class="cls-4" x1="180.14" y1="144.14" x2="72.14" y2="36.14"/><line class="cls-4" x1="504.14" y1="288.14" x2="504.14" y2="72.14"/><line class="cls-4" x1="324.14" y1="360.5" x2="324.14" y2="72.14"/><line class="cls-4" x1="72.14" y1="288.14" x2="72.14" y2="72.09"/><line class="cls-4" x1="396.14" y1="432.4" x2="396.14" y2="288.14"/><line class="cls-4" x1="216.14" y1="432.4" x2="216.14" y2="252"/><line class="cls-4" x1="396.18" y1="144.09" x2="684.86" y2="144.09"/><line class="cls-4" x1="684.58" y1="36.09" x2="576.04" y2="36.09"/><line class="cls-4" x1="251.32" y1="179.55" x2="142.78" y2="179.55"/><line class="cls-4" x1="468.44" y1="180.27" x2="359.9" y2="180.27"/><line class="cls-4" x1="720.14" y1="324.35" x2="648.14" y2="324.35"/><line class="cls-4" x1="503.74" y1="360.29" x2="468.14" y2="360.29"/><line class="cls-4" x1="612.14" y1="324.58" x2="612.14" y2="71.5"/><line class="cls-4" x1="288.14" y1="144.86" x2="288.14" y2="36.14"/><line class="cls-4" x1="540.14" y1="432.4" x2="540.14" y2="216.27"/><line class="cls-4" x1="540.66" y1="432.79" x2="324.41" y2="216.38"/><line class="cls-4" x1="216.14" y1="432.13" x2="144.62" y2="360.72"/><line class="cls-4" x1="396.14" y1="360.27" x2="287.85" y2="252.15"/><line class="cls-4" x1="360.14" y1="432.4" x2="539.94" y2="252.15"/><line class="cls-4" x1="0.09" y1="432.88" x2="180.66" y2="251.85"/><line class="cls-4" x1="720.03" y1="288.14" x2="504.22" y2="288.14"/><line class="cls-4" x1="324.79" y1="216.27" x2="540.22" y2="216.27"/><line class="cls-4" x1="215.24" y1="216.27" x2="324.79" y2="216.27"/><line class="cls-4" x1="36.54" y1="360.27" x2="324.79" y2="360.27"/><line class="cls-4" x1="216.94" y1="288.24" x2="36.14" y2="288.24"/><line class="cls-4" x1="540.14" y1="324.52" x2="720.03" y2="144.18"/><line class="cls-4" x1="684.14" y1="252.23" x2="720.14" y2="216.14"/><line class="cls-4" x1="503.81" y1="72.14" x2="720.44" y2="288.24"/><line class="cls-4" x1="180.14" y1="216.24" x2="36.3" y2="360.26"/><line class="cls-4" x1="540.17" y1="144.09" x2="396.24" y2="0.09"/><line class="cls-4" x1="216.58" y1="144.53" x2="72.14" y2="0.09"/><line class="cls-4" x1="180.14" y1="180.14" x2="180.14" y2="144.14"/><line class="cls-4" x1="216.14" y1="72.14" x2="288.01" y2="0.09"/><line class="cls-4" x1="324.53" y1="72.14" x2="215.32" y2="181.5"/><line class="cls-4" x1="0.14" y1="216.27" x2="144.54" y2="216.27"/><line class="cls-4" x1="684.28" y1="144.18" x2="396.06" y2="432.4"/><line class="cls-4" x1="180.14" y1="612.21" x2="72.14" y2="504.21"/><line class="cls-4" x1="504.14" y1="683.5" x2="504.14" y2="467.5"/><line class="cls-4" x1="324.14" y1="684.55" x2="324.14" y2="540.21"/><line class="cls-4" x1="72.14" y1="648.55" x2="72.14" y2="540.16"/><line class="cls-4" x1="396.18" y1="612.16" x2="684.86" y2="612.16"/><line class="cls-4" x1="684.58" y1="504.16" x2="576.04" y2="504.16"/><line class="cls-4" x1="468.44" y1="648.34" x2="359.9" y2="648.34"/><line class="cls-4" x1="720.14" y1="361.19" x2="648.14" y2="361.19"/><line class="cls-4" x1="288.14" y1="720.09" x2="288.14" y2="504.21"/><line class="cls-4" x1="684.45" y1="540.29" x2="576.16" y2="432.16"/><line class="cls-4" x1="720.03" y1="684.34" x2="504.22" y2="684.34"/><line class="cls-4" x1="180.14" y1="684.34" x2="324.79" y2="684.34"/><line class="cls-4" x1="576.78" y1="720.09" x2="648.14" y2="648.55"/><line class="cls-4" x1="540.98" y1="720.09" x2="612.34" y2="648.55"/><line class="cls-4" x1="503.81" y1="467.5" x2="720.44" y2="683.6"/><line class="cls-4" x1="504.1" y1="612.16" x2="360.17" y2="468.16"/><line class="cls-4" x1="216.58" y1="612.59" x2="72.14" y2="468.16"/><line class="cls-4" x1="216.14" y1="540.21" x2="288.01" y2="468.16"/><line class="cls-4" x1="215.53" y1="505.1" x2="288.05" y2="432.4"/><line class="cls-4" x1="324.53" y1="540.21" x2="180.14" y2="684.79"/><line class="cls-4" x1="0.14" y1="684.34" x2="144.54" y2="684.34"/><line class="cls-4" x1="0.14" y1="433.3" x2="144.54" y2="433.3"/></g></svg>